<?xml version="1.0" encoding="UTF-8"?><!DOCTYPE svg PUBLIC "-//W3C//DTD SVG 1.1//EN" "http://www.w3.org/Graphics/SVG/1.1/DTD/svg11.dtd">
<svg xmlns="http://www.w3.org/2000/svg" xmlns:xlink="http://www.w3.org/1999/xlink" version="1.1" width="1000" height="1000" viewBox="0 0 1000 1000">
   <g>
      <g transform="translate(0.000000,511.000000) scale(0.100000,-0.100000)">
         <path fill="#EEEEEE" d="M156.7,4953.3l-56.7-54.4V835.9V-3227l56.7-54.5l54.4-56.7h671.5h669.2v-306.3c0-297.2,2.3-310.8,56.7-363l54.4-56.7h671.5h669.2v-181.5V-4427H2516c-490,0-490,0-544.4-56.7c-74.9-72.6-74.9-176.9,0-249.5l54.4-56.7h3155.5H8337l54.5,56.7c74.9,72.6,74.9,176.9,0,249.5C8337-4427,8337-4427,7847-4427h-487.7v181.5v181.5H7847c490,0,490,0,544.4,56.7c54.5,52.2,56.7,65.8,56.7,363v306.3h669.2h671.5l54.5,56.7l56.7,54.5V835.9v4062.9l-56.7,54.4l-54.5,56.7H5000H211.2L156.7,4953.3z M9537,835.9v-3811.1H5000H463V835.9V4647h4537h4537V835.9z M8085.2-3519.6v-181.5H5000H1914.8v181.5v181.5H5000h3085.2V-3519.6z M6996.3-4245.6V-4427H5181.5H3366.7v181.5v181.5h1814.8h1814.8V-4245.6z"/>
         <path fill="#EEEEEE" d="M1520.1,4259.1c-140.6-34-347.1-154.3-446.9-263.1c-49.9-54.4-124.8-167.9-163.3-251.8l-72.6-152V833.7v-2756.2l83.9-172.4c102.1-206.4,233.7-333.5,444.6-433.3l152-72.6h3484.4h3482.2l172.4,83.9c206.4,102.1,333.5,233.7,433.3,444.6l72.6,152V835.9v2756.2l-72.6,152c-99.8,211-226.9,342.5-433.3,444.6l-172.4,83.9l-3436.8,4.5C3019.6,4279.5,1572.3,4270.5,1520.1,4259.1z M8434.5,3893.9c124.8-36.3,313-224.6,349.3-349.4c38.6-136.1,38.6-5281.1,0-5417.2c-36.3-124.8-224.6-313-349.3-349.3c-136.1-38.6-6733-38.6-6869.1,0c-124.8,36.3-313.1,224.6-349.4,349.3c-38.6,136.1-38.6,5281.1,0,5417.2c34,115.7,224.6,310.8,335.7,347.1C1672.1,3930.2,8307.5,3930.2,8434.5,3893.9z"/>
         <path fill="#EEEEEE" d="M6690,3501.4c-36.3-36.3-56.7-79.4-56.7-129.3c0-61.2,34-106.6,233.7-306.3c199.6-199.6,245-233.7,306.3-233.7c99.8,0,186,86.2,186,186c0,61.2-34,106.6-233.7,306.3c-199.6,199.6-245,233.7-306.3,233.7C6769.4,3558.1,6726.3,3537.7,6690,3501.4z"/>
         <path fill="#EEEEEE" d="M7778.9,3501.4c-36.3-36.3-56.7-79.4-56.7-129.3c0-61.2,34-106.6,233.7-306.3c199.6-199.6,245-233.7,306.3-233.7c99.8,0,186,86.2,186,186c0,61.2-34,106.6-233.7,306.3c-199.6,199.6-245,233.7-306.3,233.7C7858.3,3558.1,7815.2,3537.7,7778.9,3501.4z"/>
         <path fill="#EEEEEE" d="M7416,2775.5c-36.3-36.3-56.7-79.4-56.7-129.3c0-65.8,45.4-120.2,415.1-487.7c367.5-369.8,422-415.1,487.7-415.1c49.9,0,93,20.4,129.3,56.7s56.7,79.4,56.7,129.3c0,65.8-45.4,120.2-415.1,487.7c-367.5,369.8-422,415.1-487.7,415.1C7495.4,2832.2,7452.3,2811.8,7416,2775.5z"/>
      </g>
   </g>
</svg>
